<svg width="41" height="41" viewBox="0 0 41 41" fill="none" xmlns="http://www.w3.org/2000/svg">
<path d="M14.4932 15.5522H25.2166" stroke="#898989" stroke-width="2" stroke-linecap="round"/>
<path d="M14.4932 20.7695H21.6421" stroke="#898989" stroke-width="2" stroke-linecap="round"/>
<path d="M9.57812 23.8132V12.9437C9.57812 11.5029 10.7461 10.335 12.1868 10.335H27.9694C29.4102 10.335 30.5781 11.5029 30.5781 12.9437V23.8132C30.5781 25.254 29.4102 26.4219 27.9694 26.4219H24.6837C23.8908 26.4219 23.141 26.7825 22.6459 27.4019L21.66 28.6353C20.9638 29.5064 19.6393 29.5064 18.943 28.6353L17.9571 27.4019C17.4621 26.7825 16.7122 26.4219 15.9194 26.4219H12.1868C10.7461 26.4219 9.57812 25.254 9.57812 23.8132Z" stroke="#898989" stroke-width="2"/>
</svg>
