<svg width="41" height="41" viewBox="0 0 41 41" fill="none" xmlns="http://www.w3.org/2000/svg">
<path d="M21.9281 30.335C21.5281 30.335 21.2408 30.206 21.0661 29.948C20.8908 29.6893 20.8698 29.3683 21.0031 28.985L24.6531 19.31C24.7531 19.0433 24.9408 18.814 25.2161 18.622C25.4908 18.4306 25.7781 18.335 26.0781 18.335C26.3615 18.335 26.6448 18.4306 26.9281 18.622C27.2115 18.814 27.4031 19.0433 27.5031 19.31L31.1531 28.985C31.2865 29.3683 31.2658 29.6893 31.0911 29.948C30.9158 30.206 30.6198 30.335 30.2031 30.335C30.0198 30.335 29.8531 30.2766 29.7031 30.16C29.5531 30.0433 29.4448 29.9016 29.3781 29.735L28.5281 27.285H23.6781L22.8031 29.735C22.7365 29.9016 22.6198 30.0433 22.4531 30.16C22.2865 30.2766 22.1115 30.335 21.9281 30.335ZM24.2781 25.535H27.8781L26.1281 20.585H26.0281L24.2781 25.535ZM15.7281 16.885C15.9948 17.3683 16.2781 17.814 16.5781 18.222C16.8781 18.6306 17.2281 19.0516 17.6281 19.485C18.3615 18.685 18.9698 17.8643 19.4531 17.023C19.9365 16.181 20.3448 15.285 20.6781 14.335H10.5781C10.2948 14.335 10.0575 14.2393 9.86612 14.048C9.67412 13.856 9.57812 13.6183 9.57812 13.335C9.57812 13.0516 9.67412 12.814 9.86612 12.622C10.0575 12.4306 10.2948 12.335 10.5781 12.335H16.5781V11.335C16.5781 11.0516 16.6741 10.814 16.8661 10.622C17.0575 10.4306 17.2948 10.335 17.5781 10.335C17.8615 10.335 18.0991 10.4306 18.2911 10.622C18.4825 10.814 18.5781 11.0516 18.5781 11.335V12.335H24.5781C24.8615 12.335 25.0988 12.4306 25.2901 12.622C25.4821 12.814 25.5781 13.0516 25.5781 13.335C25.5781 13.6183 25.4821 13.856 25.2901 14.048C25.0988 14.2393 24.8615 14.335 24.5781 14.335H22.6781C22.3281 15.5183 21.8531 16.6683 21.2531 17.785C20.6531 18.9016 19.9115 19.9516 19.0281 20.935L21.4281 23.385L20.6781 25.435L17.5781 22.335L13.2781 26.635C13.0948 26.8183 12.8615 26.91 12.5781 26.91C12.2948 26.91 12.0615 26.8183 11.8781 26.635C11.6948 26.4516 11.6031 26.2183 11.6031 25.935C11.6031 25.6516 11.6948 25.4183 11.8781 25.235L16.2281 20.885C15.7781 20.3683 15.3615 19.8473 14.9781 19.322C14.5948 18.7973 14.2531 18.2433 13.9531 17.66C13.7698 17.31 13.7615 17.0016 13.9281 16.735C14.0948 16.4683 14.3865 16.335 14.8031 16.335C14.9698 16.335 15.1448 16.389 15.3281 16.497C15.5115 16.6056 15.6448 16.735 15.7281 16.885Z" fill="#898989"/>
</svg>
