<svg width="41" height="41" viewBox="0 0 41 41" fill="none" xmlns="http://www.w3.org/2000/svg">
<path d="M11.825 27.2494C11.6328 27.7998 11.1137 28.1684 10.5307 28.1684C9.58067 28.1684 8.91867 27.2255 9.24137 26.3319L13.9092 13.4071C14.1954 12.6145 14.9476 12.0864 15.7903 12.0864H15.864C16.7066 12.0864 17.4589 12.6145 17.7451 13.4071L22.4029 26.3043C22.7305 27.2113 22.0585 28.1684 21.0942 28.1684C20.5025 28.1684 19.9755 27.7942 19.7805 27.2356L19.0422 25.1208C18.902 24.7193 18.5233 24.4504 18.0981 24.4504H13.5122C13.087 24.4504 12.7082 24.7193 12.5681 25.1208L11.825 27.2494ZM15.4641 16.8824L13.8723 21.4085C13.7579 21.7338 13.9993 22.0744 14.344 22.0744H17.2854C17.631 22.0744 17.8724 21.7323 17.7565 21.4068L16.1461 16.8824C16.0713 16.6454 15.5462 16.6478 15.4641 16.8824Z" fill="#898989"/>
<path d="M25.1352 27.6095C25.0239 27.897 24.7473 28.0864 24.4391 28.0864C23.9108 28.0864 23.5497 27.5528 23.7462 27.0624L26.2451 20.8245C26.4237 20.3787 26.8557 20.0864 27.3359 20.0864C27.8162 20.0864 28.2482 20.3787 28.4268 20.8245L30.9195 27.047C31.1189 27.5447 30.7524 28.0864 30.2162 28.0864C29.9033 28.0864 29.6226 27.8941 29.5096 27.6024L29.2196 26.8534C29.0757 26.4818 28.7182 26.2369 28.3197 26.2369H26.3279C25.9294 26.2369 25.5719 26.4818 25.428 26.8534L25.1352 27.6095ZM27.1356 22.4722L26.128 25.055H28.5317L27.512 22.4722C27.4671 22.3442 27.1847 22.3457 27.1356 22.4722Z" fill="#898989"/>
</svg>
